<?xml version="1.0" encoding="UTF-8" standalone="no"?>
<!DOCTYPE svg PUBLIC "-//W3C//DTD SVG 1.1//EN"
 "http://www.w3.org/Graphics/SVG/1.1/DTD/svg11.dtd">
<!-- Generated by graphviz version 2.43.0 (0)
 -->
<!-- Title: Ogre::VectorBase&lt; dims, T &gt; Pages: 1 -->
<svg width="340pt" height="256pt"
 viewBox="0.00 0.00 340.00 256.00" xmlns="http://www.w3.org/2000/svg" xmlns:xlink="http://www.w3.org/1999/xlink">
<g id="graph0" class="graph" transform="scale(1 1) rotate(0) translate(4 252)">
<title>Ogre::VectorBase&lt; dims, T &gt;</title>
<!-- Node1 -->
<g id="node1" class="node">
<title>Node1</title>
<g id="a_node1"><a xlink:title="helper class to implement legacy API. Notably x, y, z access">
<polygon fill="#bfbfbf" stroke="black" points="0,-114.5 0,-133.5 160,-133.5 160,-114.5 0,-114.5"/>
<text text-anchor="middle" x="80" y="-121.5" font-family="Helvetica,sans-Serif" font-size="10.00">Ogre::VectorBase&lt; dims, T &gt;</text>
</a>
</g>
</g>
<!-- Node2 -->
<g id="node2" class="node">
<title>Node2</title>
<g id="a_node2"><a xlink:href="class_ogre_1_1_vector.html" target="_top" xlink:title=" ">
<polygon fill="none" stroke="black" points="197,-228.5 197,-247.5 331,-247.5 331,-228.5 197,-228.5"/>
<text text-anchor="middle" x="264" y="-235.5" font-family="Helvetica,sans-Serif" font-size="10.00">Ogre::Vector&lt; 4, Real &gt;</text>
</a>
</g>
</g>
<!-- Node1&#45;&gt;Node2 -->
<g id="edge1" class="edge">
<title>Node1&#45;&gt;Node2</title>
<path fill="none" stroke="midnightblue" d="M96.95,-140.95C117.8,-162.15 156.35,-198.19 196,-219 203.28,-222.82 211.42,-225.95 219.45,-228.49"/>
<polygon fill="midnightblue" stroke="midnightblue" points="99.33,-138.37 89.86,-133.61 94.29,-143.24 99.33,-138.37"/>
</g>
<!-- Node3 -->
<g id="node3" class="node">
<title>Node3</title>
<g id="a_node3"><a xlink:href="class_ogre_1_1_vector.html" target="_top" xlink:title=" ">
<polygon fill="none" stroke="black" points="201.5,-190.5 201.5,-209.5 326.5,-209.5 326.5,-190.5 201.5,-190.5"/>
<text text-anchor="middle" x="264" y="-197.5" font-family="Helvetica,sans-Serif" font-size="10.00">Ogre::Vector&lt; 3, int &gt;</text>
</a>
</g>
</g>
<!-- Node1&#45;&gt;Node3 -->
<g id="edge2" class="edge">
<title>Node1&#45;&gt;Node3</title>
<path fill="none" stroke="midnightblue" d="M106.76,-138.48C129.67,-150.94 164.35,-168.79 196,-181 205.14,-184.53 215.2,-187.72 224.69,-190.45"/>
<polygon fill="midnightblue" stroke="midnightblue" points="108.15,-135.25 97.7,-133.5 104.78,-141.39 108.15,-135.25"/>
</g>
<!-- Node4 -->
<g id="node4" class="node">
<title>Node4</title>
<g id="a_node4"><a xlink:href="class_ogre_1_1_vector.html" target="_top" xlink:title=" ">
<polygon fill="none" stroke="black" points="197,-152.5 197,-171.5 331,-171.5 331,-152.5 197,-152.5"/>
<text text-anchor="middle" x="264" y="-159.5" font-family="Helvetica,sans-Serif" font-size="10.00">Ogre::Vector&lt; 2, Real &gt;</text>
</a>
</g>
</g>
<!-- Node1&#45;&gt;Node4 -->
<g id="edge3" class="edge">
<title>Node1&#45;&gt;Node4</title>
<path fill="none" stroke="midnightblue" d="M136.95,-135.68C162.76,-141.07 193.01,-147.39 217.4,-152.48"/>
<polygon fill="midnightblue" stroke="midnightblue" points="137.43,-132.21 126.93,-133.59 136,-139.06 137.43,-132.21"/>
</g>
<!-- Node5 -->
<g id="node5" class="node">
<title>Node5</title>
<g id="a_node5"><a xlink:href="class_ogre_1_1_vector.html" target="_top" xlink:title=" ">
<polygon fill="none" stroke="black" points="197,-114.5 197,-133.5 331,-133.5 331,-114.5 197,-114.5"/>
<text text-anchor="middle" x="264" y="-121.5" font-family="Helvetica,sans-Serif" font-size="10.00">Ogre::Vector&lt; 3, Real &gt;</text>
</a>
</g>
</g>
<!-- Node1&#45;&gt;Node5 -->
<g id="edge4" class="edge">
<title>Node1&#45;&gt;Node5</title>
<path fill="none" stroke="midnightblue" d="M170.15,-124C179.14,-124 188.16,-124 196.84,-124"/>
<polygon fill="midnightblue" stroke="midnightblue" points="170.03,-120.5 160.03,-124 170.03,-127.5 170.03,-120.5"/>
</g>
<!-- Node6 -->
<g id="node6" class="node">
<title>Node6</title>
<g id="a_node6"><a xlink:href="class_ogre_1_1_vector.html" target="_top" xlink:title=" ">
<polygon fill="none" stroke="black" points="197,-76.5 197,-95.5 331,-95.5 331,-76.5 197,-76.5"/>
<text text-anchor="middle" x="264" y="-83.5" font-family="Helvetica,sans-Serif" font-size="10.00">Ogre::Vector&lt; 4, float &gt;</text>
</a>
</g>
</g>
<!-- Node1&#45;&gt;Node6 -->
<g id="edge5" class="edge">
<title>Node1&#45;&gt;Node6</title>
<path fill="none" stroke="midnightblue" d="M136.95,-112.32C162.76,-106.93 193.01,-100.61 217.4,-95.52"/>
<polygon fill="midnightblue" stroke="midnightblue" points="136,-108.94 126.93,-114.41 137.43,-115.79 136,-108.94"/>
</g>
<!-- Node7 -->
<g id="node7" class="node">
<title>Node7</title>
<g id="a_node7"><a xlink:href="class_ogre_1_1_vector.html" target="_top" xlink:title=" ">
<polygon fill="none" stroke="black" points="197,-38.5 197,-57.5 331,-57.5 331,-38.5 197,-38.5"/>
<text text-anchor="middle" x="264" y="-45.5" font-family="Helvetica,sans-Serif" font-size="10.00">Ogre::Vector&lt; 3, float &gt;</text>
</a>
</g>
</g>
<!-- Node1&#45;&gt;Node7 -->
<g id="edge6" class="edge">
<title>Node1&#45;&gt;Node7</title>
<path fill="none" stroke="midnightblue" d="M106.76,-109.52C129.67,-97.06 164.35,-79.21 196,-67 205.14,-63.47 215.2,-60.28 224.69,-57.55"/>
<polygon fill="midnightblue" stroke="midnightblue" points="104.78,-106.61 97.7,-114.5 108.15,-112.75 104.78,-106.61"/>
</g>
<!-- Node8 -->
<g id="node8" class="node">
<title>Node8</title>
<g id="a_node8"><a xlink:href="class_ogre_1_1_vector.html" target="_top" xlink:title="Standard N&#45;dimensional vector.">
<polygon fill="none" stroke="black" points="196,-0.5 196,-19.5 332,-19.5 332,-0.5 196,-0.5"/>
<text text-anchor="middle" x="264" y="-7.5" font-family="Helvetica,sans-Serif" font-size="10.00">Ogre::Vector&lt; dims, T &gt;</text>
</a>
</g>
</g>
<!-- Node1&#45;&gt;Node8 -->
<g id="edge7" class="edge">
<title>Node1&#45;&gt;Node8</title>
<path fill="none" stroke="midnightblue" d="M96.95,-107.05C117.8,-85.85 156.35,-49.81 196,-29 203.28,-25.18 211.42,-22.05 219.45,-19.51"/>
<polygon fill="midnightblue" stroke="midnightblue" points="94.29,-104.76 89.86,-114.39 99.33,-109.63 94.29,-104.76"/>
</g>
</g>
</svg>
